<?xml version="1.0" encoding="UTF-8" standalone="no"?>
<svg
   width="95.409882mm"
   height="130.47609mm"
   version="1.1"
   viewBox="0 0 338.06593 462.32344"
   id="svg3547"
   xmlns="http://www.w3.org/2000/svg"
   xmlns:svg="http://www.w3.org/2000/svg">
  <defs
     id="defs3551" />
  <g
     transform="translate(209.55597,-509.79)"
     id="g3545">
    <path
       d="m -82.499,667.93 c 3.5214,-2.3732 5.3245,-0.7369 7.513,0 l -5.6568,18.65 c 0,0 -4.773,-7.2478 -4.4194,-9.0156 0.3535,-1.7678 2.5632,-9.6343 2.5632,-9.6343 z"
       fill="#1976d2"
       fill-rule="evenodd"
       id="path1783" />
    <path
       d="m -4.3826,667.93 c -4.4529,-1.9486 -5.774,-0.76533 -7.513,0 l 5.6568,18.65 c 0,0 4.773,-7.2478 4.4194,-9.0156 -0.3535,-1.7678 -2.5632,-9.6343 -2.5632,-9.6343 z"
       fill="#1976d2"
       fill-rule="evenodd"
       id="path1785" />
    <path
       d="m -77.945,651.15 -3.1072,56.929 45.536,64.393 49.643,-68.214 -18.464,0.64286 -5.8929,-54.357 -31.714,27.643 z"
       fill="#fbd9a5"
       fill-rule="evenodd"
       id="path2595" />
    <path
       d="m -9.4903,654.58 0.3536,10.96 c -3.6867,8.6708 -8.8082,16.194 -14.849,22.981 -4.7669,5.0638 -12.284,10.541 -19.622,10.607 -7.574,-0.10401 -13.204,-6.2882 -20.153,-10.43 -6.5251,-7.4619 -11.144,-15.877 -14.849,-24.749 l 1.4142,-10.43 c 0,0 10.607,11.314 10.607,12.374 0,1.06 4.4194,5.4801 7.0711,8.6621 2.6516,3.182 -1.2374,4.4194 6.1872,5.6568 7.4246,1.2374 10.607,2.2981 13.612,1.7678 3.005,-0.5303 0.8839,1.591 3.8891,-1.591 3.0052,-3.182 0.8839,-0.35355 3.3587,-3.5355 2.4749,-3.182 1.0607,-2.6516 4.5962,-4.9498 3.5356,-2.2981 5.3033,-3.5355 7.4246,-5.6569 2.1214,-2.1213 0.7072,0.17678 3.3588,-3.3588 2.6517,-3.5355 0.8839,-2.2981 2.6517,-3.5355 1.7677,-1.2374 3.0052,-2.2981 3.0052,-2.2981 z"
       fill="#e3bc81"
       fill-rule="evenodd"
       id="path2597" />
    <path
       d="m -1.2308,562.83 1.5332,30.837 c 1.4257,-4.4575 6.0178,-4.1162 8.0777,-2.2757 0.7295,1.9784 0.3751,6.9639 -0.2775,13.102 -0.5216,4.9067 -0.8176,10.328 -2.5476,14.051 -2.2535,5.3952 -5.8621,7.6387 -8.75,10.179 -0.471,12.226 -3.2356,17.332 -4.4536,25.886 -3.582,9.7388 -11.446,18.007 -21.082,27.864 -3.2302,2.4751 -9.6685,4.713 -13.571,5 -6.3048,-0.34082 -11.807,-1.9656 -16.429,-5 -9.0302,-7.4945 -14.133,-16.179 -20.178,-25 -3.0093,-9.6582 -7.5266,-16.234 -9.1072,-26.429 -5.5102,-1.9666 -7.8509,-6.5101 -10.804,-11.964 -3.0948,-7.756 -1.9632,-14.425 -1.6072,-22.411 1.9048,-2.7381 3.4822,-3.6012 5.625,0.0893 l -2.1428,-10.357 c -2.2077,-11.374 -2.8357,-21.985 8.5714,-26.786 l 30.357,-13.036 45.357,-1.6071 c 5.2424,4.8501 12.04,8.5042 11.428,17.857 z"
       fill="#ffe0b2"
       fill-rule="evenodd"
       id="path2599" />
    <path
       d="m 0.3443,589 -6.3135,19.509 c -3.9082,-3.3486 -24.289,-0.24167 -35.608,1.9572 l -3.6618,2.2728 -6.4397,0.12627 -2.7779,-2.6516 c -10.323,-0.82317 -21.078,-1.1528 -32.577,-0.63134 l -1.7678,1.389 -4.7982,-16.668 c 0,0 -1.8941,1.1364 -1.7678,1.6415 0.1263,0.50507 6.9448,22.855 6.9448,22.855 0.3003,1.0458 1.5446,1.3106 1.9667,2.2448 0.4373,4.1145 3.1209,6.9063 6.4933,8.7406 8.0812,1.4827 16.162,1.205 24.244,0 3.042,-3.811 4.2613,-7.9866 5.6821,-12.122 h 5.0508 c 1.458,3.7746 3.1726,7.4208 5.3033,10.859 9.891,2.2441 19.782,1.9631 29.673,-1.5152 2.7971,-3.4804 3.0475,-6.7167 3.4724,-9.7227 l 2.9673,-2.7779 5.3033,-22.855 z"
       fill="#424242"
       fill-rule="evenodd"
       id="path2601" />
    <path
       d="m -54.534,614.88 -2.0536,-1.25 c -9.1585,-2.1136 -19.056,-1.307 -28.667,-0.92984 -0.5269,5.426 0.9638,10.5 5.8992,14.501 5.1669,1.0614 12.379,1.4901 21.786,-0.44643 3.3418,-3.2302 3.4568,-7.4688 3.0357,-11.875 z"
       fill="#ffffff"
       fill-rule="evenodd"
       id="path2603" />
    <path
       d="m -41.731,614.73 1.507,-1.6026 c 9.1585,-2.1136 28.13,-4.2419 31.049,-2.2232 -0.053,5.8896 0.2327,10.726 -3.6308,13.87 -5.1669,1.0614 -15.093,3.1316 -24.5,1.1951 -2.7105,-3.0408 -4.8458,-6.833 -4.4247,-11.239 z"
       fill="#ffffff"
       fill-rule="evenodd"
       id="path2605" />
    <path
       d="m -41.409,608.81 c 7.9614,-5.8052 22.238,-11.468 24.107,-11.164 1.0995,-0.12672 5.9243,0.33063 5.8036,0.38234 l 2.5893,0.61174 c 0.4,0.61457 0.3548,1.2294 -0.1786,1.6441 -0.3967,0.49412 -1.532,0.69423 -2.5893,0.95586 l -3.0357,-0.38234 c -4.1629,0.59826 -10.39,2.853 -14.196,5.9646 z"
       fill="#424242"
       fill-rule="evenodd"
       id="path2607" />
    <path
       d="m -56.24,608.51 c -8.5809,-4.8554 -23.431,-9.0788 -25.257,-8.645 -1.1086,-0.0331 -5.859,0.77885 -5.7329,0.81818 l -2.5079,0.78167 c -0.3287,0.61191 -0.214,1.189 0.3638,1.5386 0.4507,0.4354 1.6033,0.53498 2.6852,0.6988 l 2.9782,-0.6002 c 4.211,0.23713 10.664,1.876 14.805,4.5148 z"
       fill="#424242"
       fill-rule="evenodd"
       id="path2609" />
    <path
       d="m 3.2335,589.79 1.7857,-11.786 c 2.2723,-9.3042 3.7101,-18.238 0.8929,-24.464 -0.9379,-8.547 -0.2677,-17.386 -11.25,-24.107 -12.946,-13.608 -30.222,-18.865 -49.821,-19.643 l 3.2143,4.4643 c -12.032,-3.7896 -28.082,4.2349 -43.393,13.929 l 6.9643,-2.1429 c -11.762,6.7639 -15.008,17.675 -21.607,26.786 l 2.1429,-0.53571 c 0.1545,7.8534 1.2185,15.1 3.3929,21.607 l 1.0714,-2.5 c 0.8376,7.6786 5.0371,13.084 6.7857,23.036 l 1.7857,2.8572 2.5,-5.8929 c -0.6547,-6.7996 -1.3095,-8.9485 -1.9643,-13.214 1.9496,-5.691 4.2426,-9.837 7.1429,-11.25 16.617,4.3006 34.098,3.1306 52.143,-1.6071 6.4881,-5.2881 14.726,-6.0328 21.214,-7.0357 4.4176,4.3502 6.0957,6.7949 7.5783,11.597 1.5811,5.1207 1.1213,10.363 2.9932,15.439 l 4.2857,8.5714 z"
       fill="#393636"
       fill-rule="evenodd"
       id="path2611" />
    <path
       d="m -1.4235,618.48 c 2.6814,-4.6298 4.3006,-7.7783 5.4927,-7.5762 1.1533,0.19561 2.7783,-15.153 2.0203,-14.142 0,-2.7558 -1.5354,-3.5513 -1.8309,-1.894 -0.889,4.986 -3.3461,7.7024 -3.3461,7.7024 1.0236,6.0447 -1.132,10.954 -2.2729,16.226 z"
       fill="#fbd9a5"
       fill-rule="evenodd"
       id="path2613" />
    <path
       d="m -96.409,600.24 c -1.9046,-0.13604 -1.0561,16.774 0.9821,17.589 0.8813,0.35248 4.7322,5 4.7322,5 -1.2774,-6.9024 -3.5103,-14.76 -5.7143,-22.589 z"
       fill="#fbd9a5"
       fill-rule="evenodd"
       id="path2615" />
    <path
       d="m -35.516,940.02 -4.0406,-194.96 18.505,-16.878 2.1429,-11.25 18.214,-21.607 3.3928,-17.143 16.334,9.8045 23.486,7.0711 15.405,9.5964 8.0813,1.0102 19.908,10.018 c 22.797,17.562 22.476,104.05 42.594,149.41 -1.3317,11.625 -3.8655,23.251 -6.5227,34.876 -11.264,16.697 -28.712,29.272 -43.571,43.571 z"
       fill="#90a4ae"
       fill-rule="evenodd"
       id="path2617" />
    <path
       d="m -29.379,939.01 -10.228,-193.7 -16.649,-11.774 -0.1786,-6.9643 -22.679,-23.214 -8.6834,-26.062 -12.294,10.688 c -5.5152,0.96895 -12.927,3.076 -23.486,7.0711 l -15.026,9.849 -8.7279,-1.0281 -19.64,11.804 c -27.618,31.848 -22.476,104.05 -42.594,149.41 1.3316,11.625 3.8655,23.251 6.5227,34.876 11.264,16.697 28.712,29.272 43.571,43.571 z"
       fill="#90a4ae"
       fill-rule="evenodd"
       id="path2619" />
    <path
       d="m -4.445,667.83 c -1.4269,19.83 -7.4465,36.503 -19.643,48.929 v 11.786 l -16.429,17.143 19.931,-15.278 c 2.2244,-3.9648 1.7673,-4.4189 2.9259,-12.579 3.6679,-4.257 6.925,-3.8434 11.89,-2.911 l 12.002,22.821 C 7.14,721.179 8.7386,697.186 2.3393,678.188 Z"
       fill="#607d8b"
       fill-rule="evenodd"
       id="path2621" />
    <path
       d="m -167.23,715.94 c -0.8877,1.641 -1.3659,3.2819 -1.5468,4.9229 11.308,11 19.218,24.162 23.193,39.828 l 4,31 h 2.5 l -4.5,-33 c -2.2833,-14.83 -11.753,-28.916 -23.646,-42.751 z"
       fill="#607d8b"
       fill-rule="evenodd"
       id="path2625" />
    <path
       d="m 85.993,715.94 c 0.8877,1.641 2.6033,2.0445 2.7842,3.6854 -11.308,11 -22.93,26.284 -26.906,41.95 l -1.5251,30.116 -4.091,0.70711 3.6161,-33.354 c 2.2833,-14.83 14.228,-29.269 26.121,-43.105 z"
       fill="#607d8b"
       fill-rule="evenodd"
       id="path2627" />
    <path
       d="m -39.312,744.65 2.3866,47.641 -3.8891,0.35355 -0.7955,-47.641 z"
       fill="#607d8b"
       fill-rule="evenodd"
       id="path2629" />
    <path
       d="M -184.83,788.54 H 91.66 c 4.533,0 8.1822,3.6493 8.1822,8.1822 v 150.43 c 0,4.533 -3.6493,8.1822 -8.1822,8.1822 h -276.49 c -4.533,0 -8.1822,-3.6493 -8.1822,-8.1822 v -150.43 c 0,-4.533 3.6493,-8.1822 8.1822,-8.1822 z"
       fill="#e3dbdb"
       fill-rule="evenodd"
       id="path2631" />
    <path
       d="m -193.02,960.73 v 5.2001 c 0,3.425 4.1428,6.1833 9.2871,6.1833 h 274.29 c 5.1442,0 9.2851,-2.7583 9.2851,-6.1833 V 960.73 h -292.86 z"
       fill="#e3dbdb"
       fill-rule="evenodd"
       id="path2633" />
    <path
       d="m -82.437,667.83 c 1.4268,19.83 16.386,41.25 28.583,53.676 l -0.6061,10.826 14.661,13.607 -19.679,-11.742 c -2.2244,-3.9648 -1.6663,-7.6261 -1.8147,-10.357 -3.6679,-4.257 -8.4403,-5.5607 -13.406,-4.6282 -4.7921,9.3652 -10.435,17.27 -13.997,24.235 -0.9081,-16.562 -6.9262,-46.262 -0.5268,-65.26 z"
       fill="#607d8b"
       fill-rule="evenodd"
       id="path2635" />
    <path
       d="m -13.733,558.06 c 2.3496,-2.6249 12.202,21.053 9.2326,21.82 1.008,-10.926 -4.5816,-28.753 -10.927,-29.384 -25.45,-10.652 -53.884,-1.9959 -81.667,6.0178 2.106,3.2468 5.7703,1.0631 9.2871,1.9586 l -11.485,13.906 11.667,-5.8336 c 16.258,5.0858 34.305,3.9134 53.387,-0.88389 4.6506,-2.8979 10.257,-5.6365 20.506,-7.6014 z"
       fill="#303030"
       fill-rule="evenodd"
       id="path2637" />
    <g
       transform="translate(3.9286,4.5273)"
       fill="#808080"
       id="g3543">
      <path
         d="m -70.825,853.67 v 7.8719 l -10.865,5.9636 10.865,5.9636 v 7.8285 l -19.235,-10.518 v -6.6141 l 19.235,-10.496 z"
         id="path3537" />
      <path
         d="m -42.708,849.8 -8.0888,35.218 h -6.6234 l 8.0671,-35.218 z"
         id="path3539" />
      <path
         d="m -30.208,881.3 v -7.8719 l 10.865,-5.9636 -10.843,-5.9636 v -7.8285 l 19.213,10.518 v 6.6141 l -19.235,10.496 z"
         id="path3541" />
    </g>
  </g>
</svg>
